<svg width="1037" height="462" viewBox="0 0 1037 462" fill="none" xmlns="http://www.w3.org/2000/svg">
<path d="M137.36 326.88C141.52 323.04 146.32 321.12 151.76 321.12C157.52 321.12 162.32 323.04 166.16 326.88C170 330.72 171.92 335.52 171.92 341.28C171.92 349.6 171.92 355.84 171.92 360C171.28 375.36 168.88 388 164.72 397.92C158.64 412.96 148.24 423.68 133.52 430.08C123.28 434.24 110.8 436.32 96.08 436.32V435.36V436.32H95.12C80.72 436.32 68.24 434.24 57.68 430.08C41.36 423.68 30 412.96 23.6 397.92C20.72 390.88 19.28 384.48 19.28 378.72V331.68C19.28 328.48 19.28 325.44 19.28 322.56C20.56 308.16 24.24 295.68 30.32 285.12C24.24 274.56 20.56 262.08 19.28 247.68C19.28 244.48 19.28 241.28 19.28 238.08C19.28 230.72 19.92 223.36 21.2 216C21.84 213.76 22.64 211.68 23.6 209.76C30 194.4 41.36 183.68 57.68 177.6C61.2 176 64.88 174.72 68.72 173.76C76.72 171.84 85.68 170.88 95.6 170.88H96.08V172.32V170.88C110.48 171.2 122.96 173.44 133.52 177.6C149.84 183.68 161.2 194.4 167.6 209.76C170.16 215.2 171.6 220.8 171.92 226.56C171.92 226.88 171.92 227.04 171.92 227.04V227.52C171.92 227.84 171.92 228 171.92 228V228.48C171.92 228.48 171.92 228.64 171.92 228.96C171.92 234.4 170 239.2 166.16 243.36C162.32 247.2 157.52 249.12 151.76 249.12C146.32 249.12 141.52 247.2 137.36 243.36C133.52 239.2 131.6 234.4 131.6 228.96C131.6 220.64 131.44 214.4 131.12 210.24C130.16 199.36 127.28 190.72 122.48 184.32C117.68 177.92 108.88 174.56 96.08 174.24H95.12C87.76 174.24 81.52 176.64 76.4 181.44C69.68 187.52 64.88 197.28 62 210.72C60.4 217.44 59.6 223.52 59.6 228.96V238.08C59.6 241.28 59.76 244.48 60.08 247.68C60.72 254.08 61.84 260.16 63.44 265.92C63.44 265.92 63.44 266.08 63.44 266.4C64.4 270.24 66.8 273.12 70.64 275.04C71.6 275.68 72.88 276.32 74.48 276.96C76.72 277.92 79.28 278.72 82.16 279.36C83.44 279.68 84.88 280 86.48 280.32C89.36 280.96 92.4 281.44 95.6 281.76C104.56 283.04 112.88 283.68 120.56 283.68V286.56C108.4 286.56 100.08 286.72 95.6 287.04C91.44 287.04 87.92 287.2 85.04 287.52C84.72 287.52 84.4 287.68 84.08 288C79.28 288.64 75.6 289.6 73.04 290.88C68.88 293.12 65.84 297.44 63.92 303.84C62.96 307.04 62 311.52 61.04 317.28C60.08 322.08 59.6 326.88 59.6 331.68V378.72C59.6 384.16 60.4 390.24 62 396.96C66.8 420.96 77.84 433.12 95.12 433.44H96.08C108.88 433.12 117.68 429.76 122.48 423.36C127.28 416.96 130.16 408.32 131.12 397.44C131.44 393.28 131.6 387.04 131.6 378.72V341.28C131.6 335.52 133.52 330.72 137.36 326.88ZM513.631 174.72C506.911 207.04 502.271 235.68 499.711 260.64C497.151 285.28 496.351 305.92 497.311 322.56C498.591 339.2 499.871 351.52 501.151 359.52C502.751 367.52 505.151 376.8 508.351 387.36C511.871 400.16 513.631 409.76 513.631 416.16C513.631 421.92 511.551 426.72 507.391 430.56C503.551 434.4 498.751 436.32 492.991 436.32C487.551 436.32 482.911 434.4 479.071 430.56C475.231 426.72 473.311 421.92 473.311 416.16C473.311 388.64 474.751 365.12 477.631 345.6C480.511 325.76 490.431 273.12 507.391 187.68L399.871 436.32L291.871 187.68C309.151 273.12 319.231 325.76 322.111 345.6C324.991 365.12 326.431 388.64 326.431 416.16C326.431 421.92 324.351 426.72 320.191 430.56C316.351 434.4 311.551 436.32 305.791 436.32C300.351 436.32 295.551 434.4 291.391 430.56C287.551 426.72 285.631 421.92 285.631 416.16C285.631 409.76 287.551 400.16 291.391 387.36C294.591 376.8 296.831 367.52 298.111 359.52C299.711 351.52 300.991 339.2 301.951 322.56C303.231 305.92 302.431 285.28 299.551 260.64C296.991 235.68 292.511 207.04 286.111 174.72L286.591 174.24L285.151 170.88H325.951L399.871 340.8L473.791 170.88H513.631V173.28L513.151 174.24L513.631 174.72ZM684.834 228.96V378.72C684.834 384.48 683.394 390.88 680.514 397.92C674.114 412.96 662.754 423.68 646.434 430.08C635.874 434.24 623.394 436.32 608.994 436.32V435.84V436.32H608.034V435.84V436.32C593.634 436.32 581.154 434.24 570.594 430.08C554.274 423.68 542.914 412.96 536.514 397.92C533.634 390.88 532.194 384.48 532.194 378.72V228.96C532.194 223.2 533.634 216.8 536.514 209.76C542.914 194.72 554.274 184 570.594 177.6C581.154 173.44 593.474 171.2 607.554 170.88C608.194 170.88 608.834 170.88 609.474 170.88C623.554 171.2 635.874 173.44 646.434 177.6C662.754 184 674.114 194.72 680.514 209.76C683.394 216.8 684.834 223.2 684.834 228.96ZM608.034 433.44H608.994C626.274 433.12 637.314 420.96 642.114 396.96C643.714 390.24 644.514 384.16 644.514 378.72V228.96C644.514 223.52 643.714 217.44 642.114 210.72C636.994 186.72 625.954 174.56 608.994 174.24H608.034C591.074 174.56 580.034 186.72 574.914 210.72C573.634 216.8 572.834 222.72 572.514 228.48V379.2C572.834 384.96 573.634 390.88 574.914 396.96C574.914 397.6 574.914 398.24 574.914 398.88H575.394C575.394 399.2 575.394 399.36 575.394 399.36C575.394 399.68 575.394 399.84 575.394 399.84C575.394 400.16 575.554 400.48 575.874 400.8C575.874 401.12 575.874 401.6 575.874 402.24C576.194 402.56 576.354 402.88 576.354 403.2C576.354 403.84 576.514 404.32 576.834 404.64C576.834 404.64 576.834 404.8 576.834 405.12C576.834 405.44 576.994 405.76 577.314 406.08C577.314 406.4 577.474 406.72 577.794 407.04V407.52C577.794 407.84 577.794 408.16 577.794 408.48C578.114 408.8 578.274 409.12 578.274 409.44V409.92H578.754C578.754 409.92 578.754 410.08 578.754 410.4C578.754 410.4 578.754 410.56 578.754 410.88C579.074 411.2 579.234 411.52 579.234 411.84C579.554 412.16 579.714 412.48 579.714 412.8L580.194 413.28C580.514 414.24 580.994 415.36 581.634 416.64C581.954 416.96 582.114 417.28 582.114 417.6C582.114 417.6 582.274 417.6 582.594 417.6C582.594 417.92 582.594 418.24 582.594 418.56C582.914 418.56 583.074 418.72 583.074 419.04C583.074 419.04 583.234 419.2 583.554 419.52C583.554 419.52 583.554 419.68 583.554 420C583.874 420.32 584.034 420.48 584.034 420.48C584.354 420.48 584.514 420.64 584.514 420.96C584.834 421.28 584.994 421.44 584.994 421.44C584.994 421.44 584.994 421.6 584.994 421.92H585.474C585.474 422.24 585.634 422.56 585.954 422.88C586.274 423.2 586.594 423.52 586.914 423.84V424.32C587.234 424.32 587.394 424.32 587.394 424.32L587.874 424.8C588.194 425.12 588.514 425.44 588.834 425.76L589.314 426.24L589.794 426.72C590.114 427.04 590.274 427.2 590.274 427.2C590.594 427.2 590.754 427.36 590.754 427.68C590.754 427.68 590.914 427.68 591.234 427.68C591.234 428 591.394 428.16 591.714 428.16C591.714 428.16 591.874 428.16 592.194 428.16V428.64C592.514 428.64 592.674 428.8 592.674 429.12C592.994 429.12 593.154 429.12 593.154 429.12L594.114 429.6C594.114 429.6 594.274 429.76 594.594 430.08C594.594 430.08 594.754 430.24 595.074 430.56C595.394 430.56 595.554 430.56 595.554 430.56C595.874 430.56 596.034 430.72 596.034 431.04C596.354 431.04 596.514 431.04 596.514 431.04C596.834 431.04 597.154 431.2 597.474 431.52H597.954C597.954 431.52 598.114 431.52 598.434 431.52C598.754 431.84 598.914 432 598.914 432C599.234 432 599.554 432.16 599.874 432.48C600.194 432.48 600.354 432.48 600.354 432.48C600.674 432.48 600.994 432.48 601.314 432.48C601.634 432.48 601.794 432.48 601.794 432.48C602.114 432.8 602.274 432.96 602.274 432.96H602.754C603.074 432.96 603.394 432.96 603.714 432.96C604.034 432.96 604.194 432.96 604.194 432.96C604.514 432.96 604.674 432.96 604.674 432.96C604.994 432.96 605.314 433.12 605.634 433.44C605.954 433.44 606.114 433.44 606.114 433.44H606.594C606.914 433.44 607.074 433.44 607.074 433.44H607.554C607.554 433.44 607.714 433.44 608.034 433.44ZM822.238 177.12C826.398 172.96 831.198 170.88 836.638 170.88C842.078 170.88 846.718 172.96 850.558 177.12C854.718 180.96 856.798 185.76 856.798 191.52C856.798 236 854.878 271.52 851.038 298.08C847.838 320.16 843.358 339.68 837.598 356.64C830.558 376.48 821.598 392.64 810.718 405.12C809.118 407.04 807.518 408.8 805.918 410.4C805.918 410.72 805.758 411.04 805.438 411.36L779.998 436.32L779.038 433.92L704.158 170.88H744.478L810.238 400.32C816.638 391.36 821.438 380 824.638 366.24C827.838 353.44 829.438 338.4 829.438 321.12C829.438 300 826.558 269.92 820.797 230.88C817.918 210.4 816.478 197.28 816.478 191.52C816.478 185.76 818.398 180.96 822.238 177.12ZM1005.82 396C1011.58 396 1016.38 398.08 1020.22 402.24C1024.06 406.08 1025.98 410.88 1025.98 416.64C1025.98 422.08 1024.06 426.72 1020.22 430.56C1016.38 434.4 1011.58 436.32 1005.82 436.32H873.343V170.88H1005.82C1011.58 170.88 1016.38 172.96 1020.22 177.12C1024.06 180.96 1025.98 185.76 1025.98 191.52C1025.98 196.96 1024.06 201.76 1020.22 205.92C1016.38 209.76 1011.58 211.68 1005.82 211.68C1005.82 211.68 1005.66 211.68 1005.34 211.68C1003.42 211.68 1001.34 211.36 999.103 210.72C995.583 209.44 991.263 207.52 986.143 204.96C983.583 203.36 979.423 200.96 973.663 197.76C963.103 191.36 954.943 186.88 949.183 184.32C935.743 177.92 923.903 174.56 913.663 174.24V246.24H966.943V247.68V249.12C958.943 249.12 953.183 249.12 949.663 249.12C931.743 249.44 921.023 250.56 917.503 252.48C914.943 253.76 913.663 258.4 913.663 266.4V433.44C923.903 433.12 935.743 429.76 949.183 423.36C954.943 420.8 963.103 416.32 973.663 409.92C979.423 406.4 983.583 404 986.143 402.72C991.263 400.16 995.423 398.24 998.623 396.96H999.103C1001.34 396.32 1003.42 396 1005.34 396C1005.66 396 1005.82 396 1005.82 396Z" fill="black"/>
<path d="M59.148 38.481H79.182V170.371H59.148V77.3565C50.403 77.3565 44.4405 77.436 41.2605 77.595C32.8335 77.595 27.666 78.1515 25.758 79.2645C24.168 79.9005 23.373 81.8085 23.373 84.9885C23.373 85.1475 23.373 85.4655 23.373 85.9425V170.371H3.339V38.481H23.373V75.9255C32.118 75.9255 38.0805 75.846 41.2605 75.687C50.0055 75.528 55.332 74.892 57.24 73.779C58.512 73.143 59.148 70.9965 59.148 67.3395V38.481ZM163.046 123.864H107.237V141.751C107.237 144.454 107.635 147.475 108.43 150.814C108.43 150.973 108.43 151.132 108.43 151.291C108.43 151.45 108.43 151.53 108.43 151.53V151.768C108.589 151.927 108.668 152.007 108.668 152.007C108.668 152.007 108.668 152.086 108.668 152.245C108.668 152.404 108.668 152.643 108.668 152.961C108.827 153.12 108.907 153.279 108.907 153.438C109.066 153.597 109.145 153.835 109.145 154.153C109.145 154.312 109.225 154.471 109.384 154.63C109.384 154.789 109.384 154.948 109.384 155.107C109.543 155.266 109.622 155.346 109.622 155.346C109.622 155.664 109.702 155.982 109.861 156.3C109.861 156.459 109.94 156.538 110.099 156.538C110.099 156.856 110.179 157.174 110.338 157.492C110.338 157.651 110.338 157.81 110.338 157.969C110.497 157.969 110.576 158.049 110.576 158.208C110.576 158.208 110.576 158.287 110.576 158.446C110.735 158.446 110.815 158.526 110.815 158.685V158.923H111.053C111.053 158.923 111.053 159.003 111.053 159.162C111.053 159.321 111.133 159.4 111.292 159.4V159.639C111.292 159.639 111.292 159.718 111.292 159.877C111.451 159.877 111.53 159.957 111.53 160.116C111.689 160.275 111.769 160.434 111.769 160.593C111.928 160.752 112.007 160.911 112.007 161.07C112.007 161.07 112.007 161.149 112.007 161.308C112.166 161.308 112.325 161.388 112.484 161.547V161.785C112.643 161.944 112.723 162.103 112.723 162.262H112.961V162.501H113.2V162.739V162.978C113.359 162.978 113.438 162.978 113.438 162.978V163.216C113.597 163.375 113.756 163.455 113.915 163.455V163.693C114.074 163.852 114.154 163.932 114.154 163.932L114.392 164.17C114.551 164.329 114.71 164.488 114.869 164.647C114.869 164.647 114.869 164.727 114.869 164.886C115.028 164.886 115.187 164.965 115.346 165.124C115.346 165.283 115.426 165.363 115.585 165.363L115.823 165.601C115.823 165.601 115.823 165.681 115.823 165.84C115.982 165.84 116.062 165.84 116.062 165.84H116.3C116.3 165.999 116.38 166.078 116.539 166.078V166.317H116.777C116.777 166.317 116.857 166.396 117.016 166.555C117.175 166.555 117.254 166.555 117.254 166.555C117.413 166.714 117.572 166.873 117.731 167.032C117.89 167.032 117.97 167.112 117.97 167.271C118.129 167.271 118.288 167.271 118.447 167.271C118.606 167.43 118.685 167.509 118.685 167.509C118.844 167.509 118.924 167.509 118.924 167.509L119.162 167.748C119.162 167.748 119.242 167.748 119.401 167.748C119.401 167.748 119.48 167.827 119.639 167.986C119.798 167.986 119.878 167.986 119.878 167.986C120.037 167.986 120.196 168.066 120.355 168.225C120.514 168.225 120.593 168.225 120.593 168.225C120.752 168.225 120.832 168.225 120.832 168.225H121.07V168.463H121.309C121.627 168.463 121.945 168.543 122.263 168.702C122.422 168.702 122.501 168.702 122.501 168.702C122.66 168.702 122.74 168.702 122.74 168.702C122.899 168.702 123.058 168.702 123.217 168.702C123.376 168.702 123.535 168.781 123.694 168.941C123.853 168.941 123.932 168.941 123.932 168.941C124.091 168.941 124.171 168.941 124.171 168.941H124.409H124.648C124.648 168.941 124.727 168.941 124.886 168.941H125.363C131.723 168.781 136.096 167.112 138.481 163.932C140.866 160.752 142.297 156.459 142.774 151.053C142.933 148.986 143.012 145.885 143.012 141.751C143.012 139.048 143.966 136.743 145.874 134.835C147.941 132.768 150.326 131.734 153.029 131.734C155.891 131.734 158.276 132.768 160.184 134.835C162.092 136.743 163.046 139.048 163.046 141.751V141.99V142.228V142.467C163.046 142.467 163.046 142.546 163.046 142.706V142.944C162.887 145.806 162.172 148.588 160.9 151.291C157.72 158.764 152.075 164.091 143.966 167.271C138.719 169.338 132.518 170.371 125.363 170.371V169.894V170.371H124.886C124.727 170.371 124.489 170.371 124.171 170.371C124.012 170.371 123.773 170.371 123.455 170.371C123.455 170.371 123.376 170.371 123.217 170.371H122.74C122.581 170.371 122.342 170.371 122.024 170.371C121.865 170.371 121.706 170.371 121.547 170.371C121.388 170.371 121.309 170.371 121.309 170.371C121.15 170.371 120.991 170.371 120.832 170.371H120.593C120.434 170.371 120.196 170.371 119.878 170.371C119.719 170.371 119.56 170.292 119.401 170.133C119.242 170.133 119.083 170.133 118.924 170.133C118.765 170.133 118.526 170.133 118.208 170.133C118.208 170.133 118.129 170.133 117.97 170.133C117.652 170.133 117.334 170.053 117.016 169.894C116.857 169.894 116.777 169.894 116.777 169.894C116.618 169.894 116.459 169.894 116.3 169.894C115.982 169.894 115.823 169.894 115.823 169.894C115.505 169.735 115.267 169.656 115.108 169.656C114.949 169.656 114.79 169.656 114.631 169.656C114.154 169.497 113.756 169.417 113.438 169.417C113.12 169.417 112.802 169.338 112.484 169.179C111.371 169.02 110.338 168.781 109.384 168.463C109.384 168.463 109.304 168.463 109.145 168.463C108.986 168.304 108.827 168.225 108.668 168.225C108.509 168.225 108.35 168.145 108.191 167.986C107.555 167.827 106.919 167.589 106.283 167.271C98.1744 164.091 92.5299 158.764 89.3499 151.291C87.9189 147.793 87.2034 144.613 87.2034 141.751V104.545C87.2034 101.683 87.9189 98.5035 89.3499 95.0055C92.5299 87.5325 98.1744 82.206 106.283 79.026C111.53 76.959 117.731 75.9255 124.886 75.9255V76.164V75.9255H125.363V76.4025V75.9255C132.518 75.9255 138.719 76.959 143.966 79.026C152.075 82.206 157.72 87.5325 160.9 95.0055C162.331 98.3445 163.046 101.524 163.046 104.545V123.864ZM125.363 77.3565H124.886C124.727 77.3565 124.648 77.3565 124.648 77.3565H124.409H124.171C124.171 77.3565 124.091 77.3565 123.932 77.3565C123.455 77.5155 122.899 77.595 122.263 77.595C121.945 77.754 121.627 77.8335 121.309 77.8335C121.15 77.8335 120.991 77.913 120.832 78.072C120.673 78.072 120.514 78.072 120.355 78.072H120.116C120.116 78.231 120.037 78.3105 119.878 78.3105C119.719 78.3105 119.56 78.39 119.401 78.549C119.401 78.549 119.321 78.549 119.162 78.549C119.003 78.708 118.844 78.7875 118.685 78.7875C118.685 78.7875 118.606 78.867 118.447 79.026C118.447 79.026 118.367 79.026 118.208 79.026C118.208 79.026 118.129 79.1055 117.97 79.2645C117.97 79.2645 117.89 79.2645 117.731 79.2645C117.731 79.2645 117.652 79.344 117.493 79.503C117.334 79.503 117.175 79.5825 117.016 79.7415C116.857 79.9005 116.698 80.0595 116.539 80.2185C116.38 80.2185 116.221 80.298 116.062 80.457C115.903 80.616 115.823 80.6955 115.823 80.6955C115.664 80.6955 115.585 80.775 115.585 80.934C115.585 80.934 115.505 80.934 115.346 80.934V81.1725L115.108 81.411C115.108 81.411 115.028 81.4905 114.869 81.6495C114.71 81.6495 114.631 81.729 114.631 81.888C114.472 81.888 114.392 81.9675 114.392 82.1265L114.154 82.365C114.154 82.365 114.074 82.4445 113.915 82.6035C113.915 82.7625 113.836 82.9215 113.677 83.0805C113.518 83.0805 113.438 83.16 113.438 83.319C113.438 83.319 113.359 83.319 113.2 83.319V83.5575C113.2 83.5575 113.12 83.637 112.961 83.796C112.961 83.955 112.882 84.0345 112.723 84.0345C112.723 84.1935 112.643 84.3525 112.484 84.5115C112.484 84.6705 112.484 84.75 112.484 84.75C112.325 84.909 112.246 84.9885 112.246 84.9885C112.087 85.1475 112.007 85.3065 112.007 85.4655C112.007 85.4655 111.928 85.545 111.769 85.704C111.769 85.863 111.689 86.022 111.53 86.181C111.53 86.34 111.53 86.4195 111.53 86.4195C111.212 86.7375 110.974 87.135 110.815 87.612C110.815 87.771 110.815 87.8505 110.815 87.8505C110.656 88.0095 110.576 88.089 110.576 88.089C110.576 88.248 110.497 88.407 110.338 88.566C110.338 88.566 110.338 88.6455 110.338 88.8045C110.338 88.9635 110.258 89.1225 110.099 89.2815C109.94 89.5995 109.861 89.9175 109.861 90.2355C109.702 90.3945 109.622 90.5535 109.622 90.7125V90.951C109.463 91.11 109.384 91.269 109.384 91.428V91.6665C109.384 91.6665 109.304 91.746 109.145 91.905C109.145 92.064 109.145 92.223 109.145 92.382C108.827 93.336 108.589 94.3695 108.43 95.4825C107.635 98.8215 107.237 101.842 107.237 104.545V122.433H109.622H113.677C114.472 122.433 115.664 122.433 117.254 122.433H118.685C118.685 122.433 118.924 122.433 119.401 122.433C119.56 122.433 119.719 122.433 119.878 122.433C120.037 122.433 120.275 122.433 120.593 122.433H120.832L123.217 122.194H124.648C124.807 122.194 124.966 122.194 125.125 122.194C133.87 122.035 139.196 121.479 141.104 120.525C142.376 119.73 143.012 117.504 143.012 113.847V104.545C143.012 100.411 142.933 97.311 142.774 95.244C142.297 89.838 140.866 85.545 138.481 82.365C136.096 79.185 131.723 77.5155 125.363 77.3565ZM264.759 150.337H265.713V151.053C265.713 156.459 263.805 161.07 259.989 164.886C256.332 168.543 251.801 170.371 246.395 170.371C241.466 170.371 237.173 168.781 233.516 165.601C229.859 162.421 227.712 158.367 227.076 153.438C222.942 159.321 217.059 163.773 209.427 166.794C203.862 169.02 197.582 170.212 190.586 170.371C187.406 170.371 184.226 169.576 181.046 167.986C174.527 164.806 171.267 159.241 171.267 151.291C171.267 151.291 171.267 151.212 171.267 151.053V150.814C171.267 147.634 172.857 144.295 176.037 140.797C178.74 138.094 182.636 135.073 187.724 131.734C188.519 131.257 189.314 130.78 190.109 130.303C192.971 128.713 197.343 126.249 203.226 122.91C205.77 121.638 207.599 120.604 208.712 119.809C213.641 117.265 217.377 115.039 219.921 113.131C221.67 111.859 223.101 110.746 224.214 109.792L224.691 109.077C226.122 107.328 226.917 105.897 227.076 104.784C227.076 104.625 227.076 104.545 227.076 104.545V103.83C227.076 100.173 226.997 97.311 226.838 95.244C226.361 89.838 224.85 85.545 222.306 82.365C219.921 79.026 215.549 77.3565 209.189 77.3565C200.603 77.3565 195.038 83.3985 192.494 95.4825C191.699 98.8215 191.301 101.842 191.301 104.545C191.301 107.248 190.268 109.633 188.201 111.7C186.293 113.608 183.987 114.562 181.284 114.562C178.581 114.562 176.196 113.608 174.129 111.7C172.221 109.792 171.267 107.487 171.267 104.784C171.267 104.784 171.267 104.704 171.267 104.545V104.307C171.267 103.989 171.267 103.671 171.267 103.353C171.426 100.491 172.142 97.7085 173.414 95.0055C176.594 87.5325 182.238 82.206 190.347 79.026C195.594 76.959 201.875 75.9255 209.189 75.9255C216.344 75.9255 222.624 76.5615 228.03 77.8335C235.98 79.9005 241.545 83.3985 244.725 88.3275C246.315 90.8715 247.11 93.177 247.11 95.244V141.751C247.11 145.408 248.541 148.27 251.403 150.337C253.47 151.927 255.696 152.722 258.081 152.722C260.466 152.722 262.613 151.927 264.521 150.337H264.759ZM201.08 132.927C194.561 139.764 191.301 145.806 191.301 151.053C191.301 156.3 192.812 160.116 195.833 162.501C199.172 165.204 203.544 166.078 208.95 165.124C210.063 164.806 211.335 164.329 212.766 163.693C214.197 163.057 216.264 161.547 218.967 159.162C221.829 156.618 223.896 153.835 225.168 150.814C226.44 147.952 227.076 144.931 227.076 141.751V108.6C226.758 109.077 226.361 109.633 225.884 110.269H225.645C224.691 111.541 223.419 112.893 221.829 114.324C220.398 115.755 217.934 117.901 214.436 120.763C212.369 122.512 210.779 123.864 209.666 124.818C206.168 127.998 203.306 130.701 201.08 132.927ZM310.033 150.337H310.987V151.291C310.987 156.538 309.079 161.07 305.263 164.886C301.606 168.543 297.075 170.371 291.669 170.371C286.422 170.371 281.89 168.622 278.074 165.124C274.417 161.467 272.509 157.015 272.35 151.768V151.053V38.481H292.384V141.751C292.384 145.408 293.815 148.27 296.677 150.337C298.585 151.927 300.732 152.722 303.117 152.722C305.661 152.722 307.887 151.927 309.795 150.337H310.033ZM422.976 38.481H443.249L386.724 170.371H366.452L389.109 117.663C387.996 116.55 386.963 115.437 386.009 114.324C386.009 114.165 385.85 114.006 385.532 113.847C380.444 107.805 376.469 101.683 373.607 95.4825C370.904 89.7585 369.075 83.478 368.121 76.641C367.326 71.712 366.929 65.511 366.929 58.038C366.929 55.971 366.929 52.8705 366.929 48.7365C366.929 45.8745 367.883 43.4895 369.791 41.5815C371.699 39.5145 374.084 38.481 376.946 38.481C379.649 38.481 381.954 39.5145 383.862 41.5815C385.929 43.4895 386.963 45.795 386.963 48.498V48.975C386.963 51.519 386.645 54.6195 386.009 58.2765C385.532 59.8665 384.896 62.4105 384.101 65.9085C382.988 70.6785 382.193 74.256 381.716 76.641C380.444 83.637 380.126 89.838 380.762 95.244C381.557 101.127 383.624 106.612 386.963 111.7C387.281 112.336 387.599 112.893 387.917 113.37C388.553 114.165 389.189 114.96 389.825 115.755L422.976 38.481ZM523.757 95.0055C525.188 98.5035 525.904 101.683 525.904 104.545V141.751C525.904 143.182 525.665 144.852 525.188 146.76C525.188 147.078 525.188 147.316 525.188 147.475C525.188 147.634 525.109 147.714 524.95 147.714C524.95 147.873 524.95 148.111 524.95 148.429C524.791 148.429 524.711 148.509 524.711 148.668C524.711 148.986 524.552 149.383 524.234 149.86C524.234 150.178 524.155 150.417 523.996 150.576C523.996 150.894 523.916 151.132 523.757 151.291C523.598 151.609 523.439 151.927 523.28 152.245C523.28 152.563 523.201 152.802 523.042 152.961C522.883 153.12 522.803 153.358 522.803 153.676C522.644 153.835 522.485 153.994 522.326 154.153C522.326 154.153 522.326 154.233 522.326 154.392C522.167 154.551 522.088 154.71 522.088 154.869C521.929 154.869 521.849 154.948 521.849 155.107C521.69 155.266 521.531 155.505 521.372 155.823C521.372 155.982 521.293 156.141 521.134 156.3C520.975 156.459 520.816 156.618 520.657 156.777C520.657 156.936 520.657 157.015 520.657 157.015C520.498 157.174 520.339 157.333 520.18 157.492C520.18 157.651 520.1 157.81 519.941 157.969C519.782 158.128 519.623 158.287 519.464 158.446C519.464 158.605 519.305 158.764 518.987 158.923C518.987 159.082 518.908 159.241 518.749 159.4C518.59 159.559 518.431 159.718 518.272 159.877C518.113 160.036 517.954 160.195 517.795 160.354C516.364 161.785 514.774 163.057 513.025 164.17C512.866 164.329 512.627 164.488 512.309 164.647C512.15 164.806 511.912 164.965 511.594 165.124C511.435 165.283 511.196 165.442 510.878 165.601C510.56 165.76 510.242 165.919 509.924 166.078C509.765 166.078 509.527 166.158 509.209 166.317C508.414 166.635 507.619 166.953 506.824 167.271C506.188 167.589 505.472 167.907 504.677 168.225C504.518 168.225 504.359 168.225 504.2 168.225C504.2 168.225 504.041 168.304 503.723 168.463C503.564 168.463 503.405 168.463 503.246 168.463C503.087 168.622 502.928 168.702 502.769 168.702C502.61 168.702 502.451 168.702 502.292 168.702C501.179 169.02 499.987 169.338 498.715 169.656C498.397 169.656 498.158 169.656 497.999 169.656C497.999 169.656 497.84 169.735 497.522 169.894H496.33C496.171 169.894 496.012 169.974 495.853 170.133C495.694 170.133 495.535 170.133 495.376 170.133H494.66C494.342 170.133 494.104 170.133 493.945 170.133C493.786 170.133 493.627 170.133 493.468 170.133L492.752 170.371C492.593 170.371 492.434 170.371 492.275 170.371H492.037C491.719 170.371 491.321 170.371 490.844 170.371C490.685 170.371 490.526 170.371 490.367 170.371H490.129C489.811 170.371 489.413 170.371 488.936 170.371C488.618 170.371 488.38 170.371 488.221 170.371H487.982C487.505 170.371 486.949 170.371 486.313 170.371C485.836 170.371 485.359 170.371 484.882 170.371C484.564 170.371 484.405 170.371 484.405 170.371C484.246 170.371 484.087 170.371 483.928 170.371C483.769 170.371 483.61 170.371 483.451 170.371C483.292 170.371 483.212 170.371 483.212 170.371C483.053 170.371 482.735 170.371 482.258 170.371C481.781 170.212 481.463 170.133 481.304 170.133C480.827 170.133 480.35 170.053 479.873 169.894C479.714 169.894 479.555 169.894 479.396 169.894C479.237 169.894 479.078 169.894 478.919 169.894C478.76 169.894 478.601 169.894 478.442 169.894C478.124 169.735 477.806 169.656 477.488 169.656C477.329 169.656 477.011 169.576 476.534 169.417C476.057 169.417 475.501 169.338 474.865 169.179C474.706 169.179 474.547 169.099 474.388 168.941C474.229 168.941 474.07 168.941 473.911 168.941C473.752 168.941 473.593 168.941 473.434 168.941C473.434 168.781 473.354 168.702 473.195 168.702C472.718 168.543 472.162 168.384 471.526 168.225C471.208 168.066 470.969 167.986 470.81 167.986H470.572C470.095 167.827 469.618 167.589 469.141 167.271C461.668 164.409 456.262 159.718 452.923 153.199V152.961C452.764 152.484 452.525 151.927 452.207 151.291C450.776 147.793 450.061 144.613 450.061 141.751V104.545C450.061 103.114 450.299 101.445 450.776 99.537C450.776 99.219 450.776 98.9805 450.776 98.8215C450.776 98.6625 450.856 98.583 451.015 98.583C451.015 98.424 451.015 98.1855 451.015 97.8675C451.015 97.8675 451.094 97.788 451.253 97.629C451.412 97.152 451.571 96.7545 451.73 96.4365C451.73 96.1185 451.73 95.88 451.73 95.721C451.889 95.403 452.048 95.1645 452.207 95.0055C452.366 94.6875 452.446 94.3695 452.446 94.0515C452.605 93.7335 452.764 93.495 452.923 93.336C453.082 93.018 453.161 92.7795 453.161 92.6205C453.32 92.4615 453.479 92.3025 453.638 92.1435C453.638 91.9845 453.638 91.905 453.638 91.905C453.797 91.746 453.877 91.587 453.877 91.428C454.036 91.269 454.115 91.1895 454.115 91.1895C454.274 90.8715 454.433 90.633 454.592 90.474C455.387 89.043 456.421 87.6915 457.693 86.4195C457.852 86.2605 458.011 86.1015 458.17 85.9425C458.647 85.4655 459.203 84.909 459.839 84.273C459.998 84.114 460.157 83.955 460.316 83.796C460.634 83.637 460.873 83.478 461.032 83.319C461.191 83.319 461.27 83.2395 461.27 83.0805C461.588 82.9215 461.827 82.842 461.986 82.842C461.986 82.842 462.065 82.7625 462.224 82.6035C462.701 82.2855 463.178 81.9675 463.655 81.6495C463.814 81.4905 464.053 81.3315 464.371 81.1725C464.848 80.8545 465.404 80.5365 466.04 80.2185C466.199 80.2185 466.438 80.139 466.756 79.98C467.551 79.662 468.346 79.344 469.141 79.026C469.459 78.867 469.777 78.708 470.095 78.549C470.731 78.39 471.446 78.1515 472.241 77.8335C472.4 77.8335 472.559 77.8335 472.718 77.8335C473.195 77.6745 473.752 77.5155 474.388 77.3565C474.547 77.3565 474.706 77.277 474.865 77.118C475.66 76.959 476.455 76.8 477.25 76.641C477.409 76.641 477.568 76.641 477.727 76.641C477.886 76.641 478.124 76.5615 478.442 76.4025C478.919 76.4025 479.317 76.4025 479.635 76.4025C479.794 76.4025 479.953 76.323 480.112 76.164C480.271 76.164 480.43 76.164 480.589 76.164C480.748 76.164 480.907 76.164 481.066 76.164C481.225 76.164 481.384 76.164 481.543 76.164C481.702 76.164 481.94 76.164 482.258 76.164C482.258 76.164 482.338 76.164 482.497 76.164C482.656 76.005 482.735 75.9255 482.735 75.9255C482.894 75.9255 483.133 75.9255 483.451 75.9255C483.61 75.9255 483.769 75.9255 483.928 75.9255C484.246 75.9255 484.484 75.9255 484.643 75.9255C484.802 75.9255 484.961 75.9255 485.12 75.9255C485.438 75.9255 485.597 75.9255 485.597 75.9255H485.836C485.995 75.9255 486.154 75.9255 486.313 75.9255C486.631 75.9255 486.869 75.9255 487.028 75.9255C487.346 75.9255 487.585 75.9255 487.744 75.9255C487.744 75.9255 487.823 75.9255 487.982 75.9255H488.221C488.38 75.9255 488.618 75.9255 488.936 75.9255C489.254 75.9255 489.493 75.9255 489.652 75.9255C489.811 75.9255 489.97 75.9255 490.129 75.9255C490.765 75.9255 491.401 75.9255 492.037 75.9255C492.196 75.9255 492.355 75.9255 492.514 75.9255C492.673 75.9255 492.832 75.9255 492.991 75.9255C493.309 75.9255 493.627 76.005 493.945 76.164C494.104 76.164 494.263 76.164 494.422 76.164C494.581 76.164 494.819 76.164 495.137 76.164C495.455 76.164 495.694 76.2435 495.853 76.4025C496.012 76.4025 496.171 76.4025 496.33 76.4025C496.648 76.4025 497.045 76.4025 497.522 76.4025C497.84 76.5615 498.158 76.641 498.476 76.641C498.794 76.641 499.112 76.7205 499.43 76.8795C499.907 76.8795 500.464 76.959 501.1 77.118C501.259 77.118 501.418 77.1975 501.577 77.3565C501.895 77.3565 502.054 77.3565 502.054 77.3565C502.213 77.5155 502.451 77.595 502.769 77.595C503.246 77.754 503.644 77.913 503.962 78.072C504.121 78.072 504.28 78.072 504.439 78.072C504.757 78.231 504.995 78.3105 505.154 78.3105C505.154 78.3105 505.234 78.3105 505.393 78.3105C505.87 78.4695 506.347 78.708 506.824 79.026C514.297 81.888 519.703 86.5785 523.042 93.0975C523.36 93.7335 523.598 94.3695 523.757 95.0055ZM505.87 141.99V104.307C505.87 104.307 505.87 104.227 505.87 104.068C505.87 103.75 505.87 103.512 505.87 103.353C505.87 103.194 505.87 103.114 505.87 103.114C505.711 102.955 505.631 102.876 505.631 102.876C505.631 102.876 505.631 102.796 505.631 102.637C505.631 102.637 505.631 102.558 505.631 102.399C505.631 102.24 505.631 102.081 505.631 101.922C505.631 101.604 505.631 101.365 505.631 101.206C505.631 100.888 505.631 100.57 505.631 100.252C505.472 100.093 505.393 99.9345 505.393 99.7755C505.393 99.6165 505.393 99.4575 505.393 99.2985C505.393 99.1395 505.393 98.9805 505.393 98.8215C505.393 98.6625 505.393 98.583 505.393 98.583C505.393 98.424 505.313 98.3445 505.154 98.3445C505.154 98.1855 505.154 98.0265 505.154 97.8675C505.154 97.7085 505.154 97.5495 505.154 97.3905C505.154 97.2315 505.075 97.152 504.916 97.152C504.916 96.993 504.916 96.834 504.916 96.675C504.916 96.516 504.836 96.357 504.677 96.198C504.677 95.88 504.677 95.6415 504.677 95.4825C504.677 95.0055 504.598 94.608 504.439 94.29C504.439 94.131 504.439 94.0515 504.439 94.0515C504.439 94.0515 504.439 93.972 504.439 93.813C504.28 93.336 504.121 92.859 503.962 92.382C503.962 92.223 503.962 92.1435 503.962 92.1435C503.803 91.8255 503.723 91.5075 503.723 91.1895C503.723 91.1895 503.644 91.11 503.485 90.951C503.485 90.633 503.405 90.315 503.246 89.997C503.246 89.838 503.167 89.7585 503.008 89.7585C503.008 89.5995 503.008 89.52 503.008 89.52C503.008 89.361 502.928 89.202 502.769 89.043C502.769 88.884 502.769 88.725 502.769 88.566C502.61 88.407 502.531 88.248 502.531 88.089C502.372 87.93 502.292 87.6915 502.292 87.3735C502.133 87.2145 501.974 87.0555 501.815 86.8965C501.815 86.8965 501.815 86.817 501.815 86.658C501.815 86.499 501.736 86.4195 501.577 86.4195C501.577 86.2605 501.497 86.181 501.338 86.181C501.338 86.022 501.338 85.863 501.338 85.704C501.179 85.545 501.1 85.386 501.1 85.227C500.941 85.227 500.861 85.1475 500.861 84.9885C500.702 84.6705 500.464 84.273 500.146 83.796C499.987 83.637 499.828 83.478 499.669 83.319C499.51 83.16 499.351 83.001 499.192 82.842C499.192 82.683 499.112 82.524 498.953 82.365C498.953 82.365 498.874 82.2855 498.715 82.1265C498.556 81.9675 498.397 81.8085 498.238 81.6495C498.238 81.4905 498.158 81.411 497.999 81.411C497.84 81.252 497.681 81.1725 497.522 81.1725C497.522 81.0135 497.443 80.8545 497.284 80.6955C497.125 80.5365 497.045 80.457 497.045 80.457C496.886 80.457 496.727 80.457 496.568 80.457C496.568 80.298 496.489 80.2185 496.33 80.2185C496.33 80.0595 496.25 79.9005 496.091 79.7415C495.932 79.5825 495.694 79.4235 495.376 79.2645C495.376 79.2645 495.296 79.2645 495.137 79.2645C495.137 79.2645 495.058 79.185 494.899 79.026C494.74 78.867 494.501 78.7875 494.183 78.7875C494.024 78.6285 493.945 78.549 493.945 78.549C493.945 78.549 493.865 78.549 493.706 78.549C493.547 78.39 493.388 78.3105 493.229 78.3105C493.07 78.3105 492.991 78.3105 492.991 78.3105C492.991 78.3105 492.911 78.231 492.752 78.072C492.434 78.072 492.196 77.9925 492.037 77.8335C492.037 77.8335 491.957 77.8335 491.798 77.8335C491.798 77.8335 491.719 77.8335 491.56 77.8335C491.56 77.8335 491.48 77.8335 491.321 77.8335C491.162 77.8335 491.083 77.754 491.083 77.595C490.924 77.595 490.765 77.595 490.606 77.595C490.447 77.595 490.367 77.595 490.367 77.595C490.208 77.595 489.97 77.595 489.652 77.595C489.493 77.436 489.254 77.3565 488.936 77.3565C488.936 77.3565 488.857 77.3565 488.698 77.3565C488.539 77.3565 488.38 77.3565 488.221 77.3565H487.982C487.982 77.3565 487.903 77.3565 487.744 77.3565C487.744 77.3565 487.664 77.3565 487.505 77.3565C487.346 77.3565 487.108 77.3565 486.79 77.3565C486.79 77.3565 486.71 77.3565 486.551 77.3565C486.392 77.5155 486.233 77.595 486.074 77.595C485.915 77.595 485.756 77.595 485.597 77.595C485.597 77.595 485.518 77.595 485.359 77.595C482.497 78.072 479.953 79.4235 477.727 81.6495C477.727 81.6495 477.647 81.729 477.488 81.888C477.488 81.888 477.409 81.9675 477.25 82.1265C477.25 82.1265 477.17 82.206 477.011 82.365C477.011 82.365 476.932 82.4445 476.773 82.6035C476.614 82.7625 476.455 82.9215 476.296 83.0805C476.296 83.0805 476.296 83.16 476.296 83.319C476.296 83.319 476.216 83.3985 476.057 83.5575C474.467 85.7835 473.116 88.6455 472.003 92.1435C472.003 92.3025 471.923 92.4615 471.764 92.6205C471.764 92.7795 471.764 92.9385 471.764 93.0975C471.764 93.2565 471.764 93.336 471.764 93.336C471.605 93.972 471.446 94.6875 471.287 95.4825C471.287 95.6415 471.208 95.8005 471.049 95.9595C471.049 96.1185 471.049 96.198 471.049 96.198C471.049 96.516 470.969 96.7545 470.81 96.9135C470.81 97.2315 470.81 97.5495 470.81 97.8675C470.81 98.0265 470.81 98.1855 470.81 98.3445C470.81 98.3445 470.731 98.424 470.572 98.583C470.572 98.742 470.572 98.901 470.572 99.06C470.572 99.378 470.572 99.6165 470.572 99.7755C470.572 99.9345 470.492 100.093 470.333 100.252C470.333 100.411 470.333 100.57 470.333 100.729C470.333 100.888 470.333 101.047 470.333 101.206C470.333 101.365 470.333 101.524 470.333 101.683V101.922C470.333 102.081 470.333 102.16 470.333 102.16C470.333 102.319 470.333 102.478 470.333 102.637C470.333 102.637 470.333 102.717 470.333 102.876C470.333 102.876 470.254 102.955 470.095 103.114V103.353C470.095 103.353 470.095 103.512 470.095 103.83C470.095 103.989 470.095 104.148 470.095 104.307C470.095 104.466 470.095 104.545 470.095 104.545V141.751C470.095 141.751 470.095 141.831 470.095 141.99C470.095 141.99 470.095 142.069 470.095 142.228C470.095 142.387 470.095 142.626 470.095 142.944C470.095 143.103 470.095 143.182 470.095 143.182C470.254 143.182 470.333 143.262 470.333 143.421C470.333 143.421 470.333 143.5 470.333 143.659C470.333 143.659 470.333 143.739 470.333 143.898C470.333 144.057 470.333 144.216 470.333 144.375C470.333 144.375 470.333 144.454 470.333 144.613C470.333 144.613 470.333 144.693 470.333 144.852V145.09C470.333 145.408 470.333 145.726 470.333 146.044C470.492 146.203 470.572 146.362 470.572 146.521C470.572 146.68 470.572 146.839 470.572 146.998C470.572 147.157 470.572 147.396 470.572 147.714C470.731 148.032 470.81 148.27 470.81 148.429C470.81 148.588 470.81 148.747 470.81 148.906C470.81 149.065 470.81 149.224 470.81 149.383C470.969 149.383 471.049 149.463 471.049 149.622C471.049 149.94 471.049 150.178 471.049 150.337C471.049 150.496 471.128 150.655 471.287 150.814C471.287 151.132 471.287 151.45 471.287 151.768C471.446 151.927 471.526 152.086 471.526 152.245C471.526 152.404 471.526 152.484 471.526 152.484C471.685 152.961 471.844 153.438 472.003 153.915C472.003 154.074 472.003 154.233 472.003 154.392C472.003 154.392 472.082 154.471 472.241 154.63C472.241 154.789 472.241 154.948 472.241 155.107C472.4 155.266 472.48 155.425 472.48 155.584C472.48 155.584 472.48 155.664 472.48 155.823C472.639 155.982 472.718 156.061 472.718 156.061V156.3C472.718 156.3 472.718 156.379 472.718 156.538C472.877 156.697 472.957 156.777 472.957 156.777C472.957 157.095 473.036 157.333 473.195 157.492C473.195 157.492 473.195 157.572 473.195 157.731C473.354 157.89 473.434 158.049 473.434 158.208C473.593 158.367 473.672 158.605 473.672 158.923C473.831 158.923 473.911 159.003 473.911 159.162C474.07 159.321 474.149 159.48 474.149 159.639C474.149 159.639 474.149 159.718 474.149 159.877C474.308 160.036 474.388 160.195 474.388 160.354C474.547 160.513 474.706 160.752 474.865 161.07C475.024 161.229 475.183 161.467 475.342 161.785C475.501 161.944 475.66 162.183 475.819 162.501C475.978 162.66 476.057 162.739 476.057 162.739C476.057 162.739 476.137 162.819 476.296 162.978C476.296 163.137 476.375 163.296 476.534 163.455C476.693 163.614 476.852 163.773 477.011 163.932C477.011 163.932 477.091 164.011 477.25 164.17C477.409 164.329 477.568 164.488 477.727 164.647C477.886 164.806 477.965 164.886 477.965 164.886C478.124 165.045 478.204 165.124 478.204 165.124C478.204 165.124 478.283 165.204 478.442 165.363C478.442 165.363 478.522 165.442 478.681 165.601C479.635 166.396 480.589 167.032 481.543 167.509C481.702 167.509 481.781 167.509 481.781 167.509C481.781 167.509 481.861 167.589 482.02 167.748C482.179 167.748 482.338 167.748 482.497 167.748C482.497 167.748 482.497 167.827 482.497 167.986C482.656 167.986 482.815 168.066 482.974 168.225C483.133 168.225 483.292 168.225 483.451 168.225C483.61 168.225 483.689 168.304 483.689 168.463C483.848 168.463 483.928 168.463 483.928 168.463C484.087 168.463 484.246 168.463 484.405 168.463C484.564 168.463 484.723 168.543 484.882 168.702C485.041 168.702 485.2 168.702 485.359 168.702C485.836 168.702 486.392 168.781 487.028 168.941C487.187 168.941 487.267 168.941 487.267 168.941C487.585 168.941 487.823 168.941 487.982 168.941H488.221C488.38 168.941 488.459 168.941 488.459 168.941C488.459 168.941 488.539 168.941 488.698 168.941C488.857 168.941 489.016 168.941 489.175 168.941C489.334 168.941 489.413 168.941 489.413 168.941C489.572 168.781 489.652 168.702 489.652 168.702C489.811 168.702 489.89 168.702 489.89 168.702C490.049 168.702 490.129 168.702 490.129 168.702C493.468 168.225 496.25 166.794 498.476 164.409C498.635 164.25 498.715 164.17 498.715 164.17C498.874 164.011 498.953 163.932 498.953 163.932C498.953 163.773 499.033 163.693 499.192 163.693C499.351 163.534 499.43 163.375 499.43 163.216C499.589 163.216 499.669 163.137 499.669 162.978C499.828 162.819 499.907 162.739 499.907 162.739C501.497 160.513 502.769 157.81 503.723 154.63C503.882 154.312 503.962 154.074 503.962 153.915C503.962 153.756 504.041 153.676 504.2 153.676C504.2 153.358 504.2 153.12 504.2 152.961C504.359 152.325 504.518 151.609 504.677 150.814C504.677 150.655 504.757 150.496 504.916 150.337C504.916 150.178 504.916 150.099 504.916 150.099C505.075 149.463 505.154 148.906 505.154 148.429C505.154 148.27 505.154 148.191 505.154 148.191C505.154 148.032 505.154 147.873 505.154 147.714C505.313 147.555 505.393 147.396 505.393 147.237C505.393 147.078 505.393 146.839 505.393 146.521C505.393 146.362 505.472 146.203 505.631 146.044C505.631 145.885 505.631 145.726 505.631 145.567C505.631 145.249 505.631 145.09 505.631 145.09C505.631 144.931 505.631 144.772 505.631 144.613V144.375C505.631 144.216 505.631 144.136 505.631 144.136C505.631 143.977 505.631 143.818 505.631 143.659C505.631 143.659 505.631 143.58 505.631 143.421C505.79 143.262 505.87 143.182 505.87 143.182V142.944C505.87 142.944 505.87 142.785 505.87 142.467C505.87 142.467 505.87 142.387 505.87 142.228C505.87 142.228 505.87 142.149 505.87 141.99ZM628.332 150.337H629.286V151.053C629.286 156.459 627.378 161.07 623.562 164.886C619.905 168.543 615.373 170.371 609.967 170.371C606.151 170.371 602.574 169.338 599.235 167.271C596.055 165.204 593.67 162.342 592.08 158.685C592.08 158.844 592.08 158.923 592.08 158.923C586.674 166.396 580.393 170.212 573.238 170.371H572.761H563.46C560.121 170.371 556.941 169.894 553.92 168.941C549.786 167.35 546.129 165.045 542.949 162.024C539.928 159.003 537.702 155.425 536.271 151.291C535.317 148.429 534.84 145.408 534.84 142.228V75.9255H554.874V141.751C554.874 144.931 555.271 147.952 556.066 150.814C557.02 155.266 558.69 159.082 561.075 162.262C563.46 165.442 566.163 167.43 569.184 168.225V168.463C570.297 168.781 571.489 168.941 572.761 168.941H573C576.657 168.781 579.996 167.112 583.017 163.932C586.038 160.593 588.184 156.22 589.456 150.814C590.092 148.111 590.49 145.249 590.649 142.228C590.649 142.069 590.649 141.91 590.649 141.751V75.9255H610.683V141.751C610.683 145.408 612.114 148.27 614.976 150.337C617.043 151.927 619.269 152.722 621.654 152.722C624.039 152.722 626.185 151.927 628.093 150.337H628.332ZM712.465 104.068V104.545C712.465 107.407 711.431 109.792 709.364 111.7C707.456 113.608 705.151 114.562 702.448 114.562C699.745 114.562 697.36 113.608 695.293 111.7C693.385 109.633 692.431 107.248 692.431 104.545C692.431 100.411 692.351 97.311 692.192 95.244C691.715 89.838 690.284 85.545 687.899 82.365C685.514 79.185 681.142 77.5155 674.782 77.3565C674.782 77.3565 674.702 77.3565 674.543 77.3565H674.305C670.648 77.5155 667.309 79.185 664.288 82.365C661.426 85.386 659.279 89.4405 657.848 94.5285C657.848 94.8465 657.848 95.1645 657.848 95.4825C657.212 98.1855 656.815 101.047 656.656 104.068C656.656 104.227 656.656 104.386 656.656 104.545V170.371H636.622V75.9255H656.656V85.4655C661.744 79.1055 667.627 75.9255 674.305 75.9255H674.543H683.845C687.184 75.9255 690.364 76.4025 693.385 77.3565C697.519 78.7875 701.096 81.093 704.117 84.273C707.297 87.294 709.603 90.8715 711.034 95.0055C711.988 97.8675 712.465 100.888 712.465 104.068ZM674.782 77.3565H674.305H674.543C674.702 77.3565 674.782 77.3565 674.782 77.3565ZM788.203 124.818C791.542 126.408 793.927 128.872 795.358 132.211C796.471 134.755 797.028 137.935 797.028 141.751C797.028 144.613 796.312 147.793 794.881 151.291C791.701 158.764 786.057 164.091 777.948 167.271C772.701 169.338 766.5 170.371 759.345 170.371C759.345 170.371 759.265 170.371 759.106 170.371C751.792 170.371 745.512 169.338 740.265 167.271C732.156 164.091 726.511 158.764 723.331 151.291C722.059 148.588 721.344 145.806 721.185 142.944C721.185 142.626 721.185 142.308 721.185 141.99C721.185 141.99 721.185 141.91 721.185 141.751C721.185 139.048 722.139 136.743 724.047 134.835C725.955 132.768 728.26 131.734 730.963 131.734C733.825 131.734 736.21 132.768 738.118 134.835C740.185 136.743 741.219 139.048 741.219 141.751C741.219 146.362 742.014 150.973 743.604 155.584C746.625 164.488 751.792 168.941 759.106 168.941C759.106 168.941 759.186 168.941 759.345 168.941C769.044 168.781 774.768 162.819 776.517 151.053C776.676 149.781 776.835 148.509 776.994 147.237C777.153 145.17 777.153 143.341 776.994 141.751C776.994 141.592 776.994 141.513 776.994 141.513C776.994 138.015 776.437 135.073 775.324 132.688C773.098 127.6 767.692 124.738 759.106 124.102C757.039 123.943 753.939 123.864 749.805 123.864C745.512 123.864 742.411 123.784 740.503 123.625C736.051 123.307 732.553 122.592 730.009 121.479C726.67 119.889 724.285 117.424 722.854 114.085C721.741 111.7 721.185 108.759 721.185 105.261V104.545C721.185 101.683 721.9 98.5035 723.331 95.0055C726.511 87.5325 732.156 82.206 740.265 79.026C745.512 76.959 751.713 75.9255 758.868 75.9255H759.106C759.265 75.9255 759.345 75.9255 759.345 75.9255C766.5 75.9255 772.701 76.959 777.948 79.026C786.057 82.206 791.701 87.5325 794.881 95.0055C796.153 97.7085 796.869 100.491 797.028 103.353C797.028 103.671 797.028 103.989 797.028 104.307C797.028 104.307 797.028 104.386 797.028 104.545C797.028 107.248 796.074 109.633 794.166 111.7C792.258 113.608 789.873 114.562 787.011 114.562C784.308 114.562 781.923 113.608 779.856 111.7C777.948 109.633 776.994 107.248 776.994 104.545C776.994 100.411 776.914 97.311 776.755 95.244C776.278 89.838 774.847 85.545 772.462 82.365C770.077 79.185 765.705 77.5155 759.345 77.3565H758.629C750.202 77.5155 744.796 83.5575 742.411 95.4825C741.616 98.8215 741.219 101.842 741.219 104.545C741.219 108.043 741.775 111.064 742.888 113.608C745.114 118.696 750.52 121.558 759.106 122.194C761.173 122.353 764.274 122.433 768.408 122.433C772.542 122.433 775.642 122.512 777.709 122.671C782.161 122.989 785.659 123.705 788.203 124.818ZM881.108 123.864H825.299V141.751C825.299 144.454 825.697 147.475 826.492 150.814C826.492 150.973 826.492 151.132 826.492 151.291C826.492 151.45 826.492 151.53 826.492 151.53V151.768C826.651 151.927 826.73 152.007 826.73 152.007C826.73 152.007 826.73 152.086 826.73 152.245C826.73 152.404 826.73 152.643 826.73 152.961C826.889 153.12 826.969 153.279 826.969 153.438C827.128 153.597 827.207 153.835 827.207 154.153C827.207 154.312 827.287 154.471 827.446 154.63C827.446 154.789 827.446 154.948 827.446 155.107C827.605 155.266 827.684 155.346 827.684 155.346C827.684 155.664 827.764 155.982 827.923 156.3C827.923 156.459 828.002 156.538 828.161 156.538C828.161 156.856 828.241 157.174 828.4 157.492C828.4 157.651 828.4 157.81 828.4 157.969C828.559 157.969 828.638 158.049 828.638 158.208C828.638 158.208 828.638 158.287 828.638 158.446C828.797 158.446 828.877 158.526 828.877 158.685V158.923H829.115C829.115 158.923 829.115 159.003 829.115 159.162C829.115 159.321 829.195 159.4 829.354 159.4V159.639C829.354 159.639 829.354 159.718 829.354 159.877C829.513 159.877 829.592 159.957 829.592 160.116C829.751 160.275 829.831 160.434 829.831 160.593C829.99 160.752 830.069 160.911 830.069 161.07C830.069 161.07 830.069 161.149 830.069 161.308C830.228 161.308 830.387 161.388 830.546 161.547V161.785C830.705 161.944 830.785 162.103 830.785 162.262H831.023V162.501H831.262V162.739V162.978C831.421 162.978 831.5 162.978 831.5 162.978V163.216C831.659 163.375 831.818 163.455 831.977 163.455V163.693C832.136 163.852 832.216 163.932 832.216 163.932L832.454 164.17C832.613 164.329 832.772 164.488 832.931 164.647C832.931 164.647 832.931 164.727 832.931 164.886C833.09 164.886 833.249 164.965 833.408 165.124C833.408 165.283 833.488 165.363 833.647 165.363L833.885 165.601C833.885 165.601 833.885 165.681 833.885 165.84C834.044 165.84 834.124 165.84 834.124 165.84H834.362C834.362 165.999 834.442 166.078 834.601 166.078V166.317H834.839C834.839 166.317 834.919 166.396 835.078 166.555C835.237 166.555 835.316 166.555 835.316 166.555C835.475 166.714 835.634 166.873 835.793 167.032C835.952 167.032 836.032 167.112 836.032 167.271C836.191 167.271 836.35 167.271 836.509 167.271C836.668 167.43 836.747 167.509 836.747 167.509C836.906 167.509 836.986 167.509 836.986 167.509L837.224 167.748C837.224 167.748 837.304 167.748 837.463 167.748C837.463 167.748 837.542 167.827 837.701 167.986C837.86 167.986 837.94 167.986 837.94 167.986C838.099 167.986 838.258 168.066 838.417 168.225C838.576 168.225 838.655 168.225 838.655 168.225C838.814 168.225 838.894 168.225 838.894 168.225H839.132V168.463H839.371C839.689 168.463 840.007 168.543 840.325 168.702C840.484 168.702 840.563 168.702 840.563 168.702C840.722 168.702 840.802 168.702 840.802 168.702C840.961 168.702 841.12 168.702 841.279 168.702C841.438 168.702 841.597 168.781 841.756 168.941C841.915 168.941 841.994 168.941 841.994 168.941C842.153 168.941 842.233 168.941 842.233 168.941H842.471H842.71C842.71 168.941 842.789 168.941 842.948 168.941H843.425C849.785 168.781 854.158 167.112 856.543 163.932C858.928 160.752 860.359 156.459 860.836 151.053C860.995 148.986 861.074 145.885 861.074 141.751C861.074 139.048 862.028 136.743 863.936 134.835C866.003 132.768 868.388 131.734 871.091 131.734C873.953 131.734 876.338 132.768 878.246 134.835C880.154 136.743 881.108 139.048 881.108 141.751V141.99V142.228V142.467C881.108 142.467 881.108 142.546 881.108 142.706V142.944C880.949 145.806 880.234 148.588 878.962 151.291C875.782 158.764 870.137 164.091 862.028 167.271C856.781 169.338 850.58 170.371 843.425 170.371V169.894V170.371H842.948C842.789 170.371 842.551 170.371 842.233 170.371C842.074 170.371 841.835 170.371 841.517 170.371C841.517 170.371 841.438 170.371 841.279 170.371H840.802C840.643 170.371 840.404 170.371 840.086 170.371C839.927 170.371 839.768 170.371 839.609 170.371C839.45 170.371 839.371 170.371 839.371 170.371C839.212 170.371 839.053 170.371 838.894 170.371H838.655C838.496 170.371 838.258 170.371 837.94 170.371C837.781 170.371 837.622 170.292 837.463 170.133C837.304 170.133 837.145 170.133 836.986 170.133C836.827 170.133 836.588 170.133 836.27 170.133C836.27 170.133 836.191 170.133 836.032 170.133C835.714 170.133 835.396 170.053 835.078 169.894C834.919 169.894 834.839 169.894 834.839 169.894C834.68 169.894 834.521 169.894 834.362 169.894C834.044 169.894 833.885 169.894 833.885 169.894C833.567 169.735 833.329 169.656 833.17 169.656C833.011 169.656 832.852 169.656 832.693 169.656C832.216 169.497 831.818 169.417 831.5 169.417C831.182 169.417 830.864 169.338 830.546 169.179C829.433 169.02 828.4 168.781 827.446 168.463C827.446 168.463 827.366 168.463 827.207 168.463C827.048 168.304 826.889 168.225 826.73 168.225C826.571 168.225 826.412 168.145 826.253 167.986C825.617 167.827 824.981 167.589 824.345 167.271C816.236 164.091 810.592 158.764 807.412 151.291C805.981 147.793 805.265 144.613 805.265 141.751V104.545C805.265 101.683 805.981 98.5035 807.412 95.0055C810.592 87.5325 816.236 82.206 824.345 79.026C829.592 76.959 835.793 75.9255 842.948 75.9255V76.164V75.9255H843.425V76.4025V75.9255C850.58 75.9255 856.781 76.959 862.028 79.026C870.137 82.206 875.782 87.5325 878.962 95.0055C880.393 98.3445 881.108 101.524 881.108 104.545V123.864ZM843.425 77.3565H842.948C842.789 77.3565 842.71 77.3565 842.71 77.3565H842.471H842.233C842.233 77.3565 842.153 77.3565 841.994 77.3565C841.517 77.5155 840.961 77.595 840.325 77.595C840.007 77.754 839.689 77.8335 839.371 77.8335C839.212 77.8335 839.053 77.913 838.894 78.072C838.735 78.072 838.576 78.072 838.417 78.072H838.178C838.178 78.231 838.099 78.3105 837.94 78.3105C837.781 78.3105 837.622 78.39 837.463 78.549C837.463 78.549 837.383 78.549 837.224 78.549C837.065 78.708 836.906 78.7875 836.747 78.7875C836.747 78.7875 836.668 78.867 836.509 79.026C836.509 79.026 836.429 79.026 836.27 79.026C836.27 79.026 836.191 79.1055 836.032 79.2645C836.032 79.2645 835.952 79.2645 835.793 79.2645C835.793 79.2645 835.714 79.344 835.555 79.503C835.396 79.503 835.237 79.5825 835.078 79.7415C834.919 79.9005 834.76 80.0595 834.601 80.2185C834.442 80.2185 834.283 80.298 834.124 80.457C833.965 80.616 833.885 80.6955 833.885 80.6955C833.726 80.6955 833.647 80.775 833.647 80.934C833.647 80.934 833.567 80.934 833.408 80.934V81.1725L833.17 81.411C833.17 81.411 833.09 81.4905 832.931 81.6495C832.772 81.6495 832.693 81.729 832.693 81.888C832.534 81.888 832.454 81.9675 832.454 82.1265L832.216 82.365C832.216 82.365 832.136 82.4445 831.977 82.6035C831.977 82.7625 831.898 82.9215 831.739 83.0805C831.58 83.0805 831.5 83.16 831.5 83.319C831.5 83.319 831.421 83.319 831.262 83.319V83.5575C831.262 83.5575 831.182 83.637 831.023 83.796C831.023 83.955 830.944 84.0345 830.785 84.0345C830.785 84.1935 830.705 84.3525 830.546 84.5115C830.546 84.6705 830.546 84.75 830.546 84.75C830.387 84.909 830.308 84.9885 830.308 84.9885C830.149 85.1475 830.069 85.3065 830.069 85.4655C830.069 85.4655 829.99 85.545 829.831 85.704C829.831 85.863 829.751 86.022 829.592 86.181C829.592 86.34 829.592 86.4195 829.592 86.4195C829.274 86.7375 829.036 87.135 828.877 87.612C828.877 87.771 828.877 87.8505 828.877 87.8505C828.718 88.0095 828.638 88.089 828.638 88.089C828.638 88.248 828.559 88.407 828.4 88.566C828.4 88.566 828.4 88.6455 828.4 88.8045C828.4 88.9635 828.32 89.1225 828.161 89.2815C828.002 89.5995 827.923 89.9175 827.923 90.2355C827.764 90.3945 827.684 90.5535 827.684 90.7125V90.951C827.525 91.11 827.446 91.269 827.446 91.428V91.6665C827.446 91.6665 827.366 91.746 827.207 91.905C827.207 92.064 827.207 92.223 827.207 92.382C826.889 93.336 826.651 94.3695 826.492 95.4825C825.697 98.8215 825.299 101.842 825.299 104.545V122.433H827.684H831.739C832.534 122.433 833.726 122.433 835.316 122.433H836.747C836.747 122.433 836.986 122.433 837.463 122.433C837.622 122.433 837.781 122.433 837.94 122.433C838.099 122.433 838.337 122.433 838.655 122.433H838.894L841.279 122.194H842.71C842.869 122.194 843.028 122.194 843.187 122.194C851.932 122.035 857.258 121.479 859.166 120.525C860.438 119.73 861.074 117.504 861.074 113.847V104.545C861.074 100.411 860.995 97.311 860.836 95.244C860.359 89.838 858.928 85.545 856.543 82.365C854.158 79.185 849.785 77.5155 843.425 77.3565ZM927.012 150.337H927.966V151.291C927.966 156.538 926.058 161.07 922.242 164.886C918.585 168.543 914.054 170.371 908.648 170.371C903.401 170.371 898.869 168.622 895.053 165.124C891.396 161.467 889.488 157.015 889.329 151.768V151.053V38.481H909.363V141.751C909.363 145.408 910.794 148.27 913.656 150.337C915.564 151.927 917.711 152.722 920.096 152.722C922.64 152.722 924.866 151.927 926.774 150.337H927.012ZM1009.62 51.837C1011.21 54.381 1012 56.6865 1012 58.7535V68.055C1012 70.917 1011.05 73.3815 1009.14 75.4485C1007.23 77.3565 1004.85 78.3105 1001.99 78.3105C999.284 78.3105 996.899 77.3565 994.832 75.4485C992.924 73.3815 991.97 70.917 991.97 68.055C991.97 63.921 991.89 60.8205 991.731 58.7535C991.254 53.3475 989.744 49.0545 987.2 45.8745C984.815 42.5355 980.442 40.866 974.082 40.866H973.844C973.685 40.866 973.605 40.9455 973.605 41.1045C973.446 41.1045 973.287 41.1045 973.128 41.1045H972.89C972.89 41.1045 972.81 41.1045 972.651 41.1045C971.856 41.1045 971.141 41.184 970.505 41.343C970.346 41.343 970.187 41.4225 970.028 41.5815C969.71 41.5815 969.312 41.661 968.835 41.82L968.597 42.0585C968.12 42.2175 967.563 42.456 966.927 42.774C966.768 42.774 966.609 42.8535 966.45 43.0125C966.291 43.1715 966.132 43.251 965.973 43.251C965.814 43.41 965.655 43.569 965.496 43.728C965.178 43.887 964.86 44.1255 964.542 44.4435C964.542 44.4435 964.463 44.523 964.304 44.682C964.304 44.682 964.224 44.7615 964.065 44.9205C964.065 44.9205 963.986 45 963.827 45.159C963.668 45.318 963.588 45.3975 963.588 45.3975C963.429 45.5565 963.35 45.636 963.35 45.636V45.8745H963.111C962.952 46.0335 962.793 46.272 962.634 46.59C962.475 46.59 962.396 46.6695 962.396 46.8285C962.396 46.8285 962.316 46.908 962.157 47.067C962.157 47.226 962.078 47.3055 961.919 47.3055C961.919 47.4645 961.839 47.544 961.68 47.544V47.7825C961.68 47.7825 961.68 47.862 961.68 48.021H961.442C961.442 48.18 961.362 48.339 961.203 48.498C961.203 48.498 961.203 48.5775 961.203 48.7365C961.044 48.7365 960.965 48.816 960.965 48.975C960.806 49.134 960.726 49.293 960.726 49.452C960.567 49.611 960.488 49.77 960.488 49.929C960.488 49.929 960.408 50.0085 960.249 50.1675C960.09 50.4855 960.011 50.724 960.011 50.883C959.852 51.042 959.772 51.201 959.772 51.36C959.772 51.36 959.693 51.4395 959.534 51.5985C959.534 51.7575 959.454 51.9165 959.295 52.0755C959.295 52.2345 959.295 52.3935 959.295 52.5525C959.295 52.5525 959.216 52.632 959.057 52.791C958.898 53.268 958.739 53.8245 958.58 54.4605C958.421 54.6195 958.341 54.858 958.341 55.176C958.341 55.176 958.341 55.2555 958.341 55.4145H958.103C958.103 55.7325 958.103 55.8915 958.103 55.8915C958.103 56.0505 958.023 56.2095 957.864 56.3685C957.864 56.6865 957.785 57.084 957.626 57.561C957.626 57.72 957.626 57.879 957.626 58.038L957.387 58.2765V58.515C957.387 58.674 957.387 58.833 957.387 58.992C956.592 62.331 956.195 65.352 956.195 68.055V113.847H982.668V115.516C978.693 115.516 975.831 115.516 974.082 115.516C968.517 115.516 964.622 115.675 962.396 115.993C959.534 116.311 957.785 116.947 957.149 117.901C956.513 118.855 956.195 120.843 956.195 123.864V208.532H955.479H955.241C950.471 208.532 946.337 210.281 942.839 213.779C939.341 217.277 937.592 221.49 937.592 226.419H936.161V68.055C936.161 65.193 936.876 62.013 938.307 58.515C941.487 51.042 947.132 45.7155 955.241 42.5355C960.488 40.4685 966.689 39.435 973.844 39.435H974.082C981.237 39.435 987.518 40.1505 992.924 41.5815C1000.87 43.6485 1006.44 47.067 1009.62 51.837Z" fill="white"/>
</svg>
